<mxfile host="app.diagrams.net" modified="2023-07-02T12:12:52.284Z" agent="Mozilla/5.0 (Macintosh; Intel Mac OS X 10_15_7) AppleWebKit/537.36 (KHTML, like Gecko) Chrome/114.0.0.0 Safari/537.36" etag="c30Y4cEiWTOCBK51WdoA" version="21.3.2" type="device" pages="2">
  <diagram name="Page-1" id="AGMMYG3deWLyK7cmoU7N">
    <mxGraphModel dx="1742" dy="531" grid="1" gridSize="10" guides="1" tooltips="1" connect="1" arrows="1" fold="1" page="1" pageScale="1" pageWidth="850" pageHeight="1100" math="0" shadow="0">
      <root>
        <mxCell id="0" />
        <mxCell id="1" parent="0" />
        <mxCell id="-EpMlEq-ts7byYcgDH_6-1" value="" style="rounded=0;whiteSpace=wrap;html=1;" vertex="1" parent="1">
          <mxGeometry x="-42.93" y="300" width="200" height="120" as="geometry" />
        </mxCell>
        <mxCell id="-EpMlEq-ts7byYcgDH_6-4" value="" style="rounded=0;whiteSpace=wrap;html=1;" vertex="1" parent="1">
          <mxGeometry x="199" y="360.5" width="200" height="120" as="geometry" />
        </mxCell>
        <mxCell id="-EpMlEq-ts7byYcgDH_6-5" value="" style="rounded=0;whiteSpace=wrap;html=1;" vertex="1" parent="1">
          <mxGeometry x="440" y="360.5" width="200" height="120" as="geometry" />
        </mxCell>
        <mxCell id="-EpMlEq-ts7byYcgDH_6-6" value="" style="rounded=0;whiteSpace=wrap;html=1;" vertex="1" parent="1">
          <mxGeometry x="680" y="299.97" width="200" height="120" as="geometry" />
        </mxCell>
        <mxCell id="-EpMlEq-ts7byYcgDH_6-7" value="" style="rounded=0;whiteSpace=wrap;html=1;" vertex="1" parent="1">
          <mxGeometry x="314.17" y="199.97" width="200" height="120" as="geometry" />
        </mxCell>
        <mxCell id="-EpMlEq-ts7byYcgDH_6-8" value="ocp-test" style="text;html=1;strokeColor=none;fillColor=none;align=center;verticalAlign=middle;whiteSpace=wrap;rounded=0;" vertex="1" parent="1">
          <mxGeometry x="27.069999999999993" y="300" width="60" height="30" as="geometry" />
        </mxCell>
        <mxCell id="-EpMlEq-ts7byYcgDH_6-10" value="ocp-dev" style="text;html=1;strokeColor=none;fillColor=none;align=center;verticalAlign=middle;whiteSpace=wrap;rounded=0;" vertex="1" parent="1">
          <mxGeometry x="274" y="360.5" width="60" height="30" as="geometry" />
        </mxCell>
        <mxCell id="-EpMlEq-ts7byYcgDH_6-11" value="ocp-qa" style="text;html=1;strokeColor=none;fillColor=none;align=center;verticalAlign=middle;whiteSpace=wrap;rounded=0;" vertex="1" parent="1">
          <mxGeometry x="510" y="360.5" width="60" height="30" as="geometry" />
        </mxCell>
        <mxCell id="-EpMlEq-ts7byYcgDH_6-12" value="ocp-prod" style="text;html=1;strokeColor=none;fillColor=none;align=center;verticalAlign=middle;whiteSpace=wrap;rounded=0;" vertex="1" parent="1">
          <mxGeometry x="750" y="299.97" width="60" height="30" as="geometry" />
        </mxCell>
        <mxCell id="-EpMlEq-ts7byYcgDH_6-13" value="ocp-acm" style="text;html=1;strokeColor=none;fillColor=none;align=center;verticalAlign=middle;whiteSpace=wrap;rounded=0;" vertex="1" parent="1">
          <mxGeometry x="384.17" y="199.97" width="60" height="30" as="geometry" />
        </mxCell>
        <mxCell id="-EpMlEq-ts7byYcgDH_6-14" value="" style="rounded=0;whiteSpace=wrap;html=1;" vertex="1" parent="1">
          <mxGeometry x="-42.93" y="330" width="20" height="90" as="geometry" />
        </mxCell>
        <mxCell id="-EpMlEq-ts7byYcgDH_6-17" value="" style="rounded=0;whiteSpace=wrap;html=1;" vertex="1" parent="1">
          <mxGeometry x="-22.93" y="330" width="20" height="90" as="geometry" />
        </mxCell>
        <mxCell id="-EpMlEq-ts7byYcgDH_6-18" value="master-node-1" style="text;html=1;strokeColor=none;fillColor=none;align=center;verticalAlign=middle;whiteSpace=wrap;rounded=0;rotation=-90;" vertex="1" parent="1">
          <mxGeometry x="-56.99999999999999" y="365.46" width="88.13" height="19.07" as="geometry" />
        </mxCell>
        <mxCell id="-EpMlEq-ts7byYcgDH_6-33" value="master-node-0" style="text;html=1;strokeColor=none;fillColor=none;align=center;verticalAlign=middle;whiteSpace=wrap;rounded=0;rotation=-90;" vertex="1" parent="1">
          <mxGeometry x="-77" y="365.46" width="88.13" height="19.07" as="geometry" />
        </mxCell>
        <mxCell id="-EpMlEq-ts7byYcgDH_6-34" value="" style="rounded=0;whiteSpace=wrap;html=1;" vertex="1" parent="1">
          <mxGeometry x="-2.8600000000000136" y="329.99" width="20" height="90" as="geometry" />
        </mxCell>
        <mxCell id="-EpMlEq-ts7byYcgDH_6-35" value="master-node-2" style="text;html=1;strokeColor=none;fillColor=none;align=center;verticalAlign=middle;whiteSpace=wrap;rounded=0;rotation=-90;" vertex="1" parent="1">
          <mxGeometry x="-36.93" y="365.45" width="88.13" height="19.07" as="geometry" />
        </mxCell>
        <mxCell id="-EpMlEq-ts7byYcgDH_6-36" value="" style="rounded=0;whiteSpace=wrap;html=1;" vertex="1" parent="1">
          <mxGeometry x="27.039999999999992" y="329.99" width="20" height="90" as="geometry" />
        </mxCell>
        <mxCell id="-EpMlEq-ts7byYcgDH_6-37" value="" style="rounded=0;whiteSpace=wrap;html=1;" vertex="1" parent="1">
          <mxGeometry x="47.03999999999999" y="329.99" width="20" height="90" as="geometry" />
        </mxCell>
        <mxCell id="-EpMlEq-ts7byYcgDH_6-38" value="worker-node-1" style="text;html=1;strokeColor=none;fillColor=none;align=center;verticalAlign=middle;whiteSpace=wrap;rounded=0;rotation=-90;" vertex="1" parent="1">
          <mxGeometry x="12.969999999999999" y="365.45" width="88.13" height="19.07" as="geometry" />
        </mxCell>
        <mxCell id="-EpMlEq-ts7byYcgDH_6-39" value="worker-node-0" style="text;html=1;strokeColor=none;fillColor=none;align=center;verticalAlign=middle;whiteSpace=wrap;rounded=0;rotation=-90;" vertex="1" parent="1">
          <mxGeometry x="-7.030000000000001" y="365.45" width="88.13" height="19.07" as="geometry" />
        </mxCell>
        <mxCell id="-EpMlEq-ts7byYcgDH_6-40" value="" style="rounded=0;whiteSpace=wrap;html=1;" vertex="1" parent="1">
          <mxGeometry x="67.10999999999999" y="329.98" width="20" height="90" as="geometry" />
        </mxCell>
        <mxCell id="-EpMlEq-ts7byYcgDH_6-41" value="worker-node-2" style="text;html=1;strokeColor=none;fillColor=none;align=center;verticalAlign=middle;whiteSpace=wrap;rounded=0;rotation=-90;" vertex="1" parent="1">
          <mxGeometry x="33.03999999999999" y="365.44" width="88.13" height="19.07" as="geometry" />
        </mxCell>
        <mxCell id="-EpMlEq-ts7byYcgDH_6-42" value="" style="rounded=0;whiteSpace=wrap;html=1;" vertex="1" parent="1">
          <mxGeometry x="97.11000000000001" y="329.98" width="20" height="90" as="geometry" />
        </mxCell>
        <mxCell id="-EpMlEq-ts7byYcgDH_6-43" value="" style="rounded=0;whiteSpace=wrap;html=1;" vertex="1" parent="1">
          <mxGeometry x="117.11000000000001" y="329.98" width="20" height="90" as="geometry" />
        </mxCell>
        <mxCell id="-EpMlEq-ts7byYcgDH_6-44" value="infra-node-1" style="text;html=1;strokeColor=none;fillColor=none;align=center;verticalAlign=middle;whiteSpace=wrap;rounded=0;rotation=-90;" vertex="1" parent="1">
          <mxGeometry x="83.04000000000002" y="365.44" width="88.13" height="19.07" as="geometry" />
        </mxCell>
        <mxCell id="-EpMlEq-ts7byYcgDH_6-45" value="infra-node-0" style="text;html=1;strokeColor=none;fillColor=none;align=center;verticalAlign=middle;whiteSpace=wrap;rounded=0;rotation=-90;" vertex="1" parent="1">
          <mxGeometry x="63.04000000000002" y="365.44" width="88.13" height="19.07" as="geometry" />
        </mxCell>
        <mxCell id="-EpMlEq-ts7byYcgDH_6-46" value="" style="rounded=0;whiteSpace=wrap;html=1;" vertex="1" parent="1">
          <mxGeometry x="137.18" y="329.97" width="20" height="90" as="geometry" />
        </mxCell>
        <mxCell id="-EpMlEq-ts7byYcgDH_6-47" value="infra-node-2" style="text;html=1;strokeColor=none;fillColor=none;align=center;verticalAlign=middle;whiteSpace=wrap;rounded=0;rotation=-90;" vertex="1" parent="1">
          <mxGeometry x="103.11000000000001" y="365.43" width="88.13" height="19.07" as="geometry" />
        </mxCell>
      </root>
    </mxGraphModel>
  </diagram>
  <diagram id="EtxZ2_l-tFYJAmMD0-5v" name="Page-2">
    <mxGraphModel dx="1026" dy="611" grid="1" gridSize="10" guides="1" tooltips="1" connect="1" arrows="1" fold="1" page="1" pageScale="1" pageWidth="850" pageHeight="1100" math="0" shadow="0">
      <root>
        <mxCell id="0" />
        <mxCell id="1" parent="0" />
        <mxCell id="x5rO-5AH1n4s-soj-UQj-3" style="edgeStyle=orthogonalEdgeStyle;rounded=0;orthogonalLoop=1;jettySize=auto;html=1;" edge="1" parent="1" source="x5rO-5AH1n4s-soj-UQj-1" target="x5rO-5AH1n4s-soj-UQj-2">
          <mxGeometry relative="1" as="geometry" />
        </mxCell>
        <mxCell id="x5rO-5AH1n4s-soj-UQj-1" value="sean" style="shape=umlActor;verticalLabelPosition=bottom;verticalAlign=top;html=1;outlineConnect=0;" vertex="1" parent="1">
          <mxGeometry x="50" y="300" width="30" height="60" as="geometry" />
        </mxCell>
        <mxCell id="x5rO-5AH1n4s-soj-UQj-2" value="" style="rounded=0;whiteSpace=wrap;html=1;" vertex="1" parent="1">
          <mxGeometry x="200" y="300" width="120" height="60" as="geometry" />
        </mxCell>
        <mxCell id="x5rO-5AH1n4s-soj-UQj-4" value="Text" style="text;html=1;strokeColor=none;fillColor=none;align=center;verticalAlign=middle;whiteSpace=wrap;rounded=0;" vertex="1" parent="1">
          <mxGeometry x="110" y="300" width="60" height="30" as="geometry" />
        </mxCell>
        <mxCell id="x5rO-5AH1n4s-soj-UQj-6" value="ocp-acm" style="text;html=1;strokeColor=none;fillColor=none;align=center;verticalAlign=middle;whiteSpace=wrap;rounded=0;" vertex="1" parent="1">
          <mxGeometry x="230" y="300" width="60" height="30" as="geometry" />
        </mxCell>
      </root>
    </mxGraphModel>
  </diagram>
</mxfile>
